<svg width="90" height="32" viewBox="0 0 90 32" fill="none" xmlns="http://www.w3.org/2000/svg">
<rect width="90" height="32" rx="16" fill="#E32727"/>
<path d="M34.8101 23V9.24H45.9301V12.54H39.2301V14.9H44.9901V18.06H39.2301V23H34.8101ZM48.1499 23V9.24H54.1099C55.6833 9.24 57.0033 9.48667 58.0699 9.98C59.1366 10.4733 59.9433 11.2267 60.4899 12.24C61.0499 13.2533 61.3299 14.5467 61.3299 16.12C61.3299 17.68 61.0499 18.9733 60.4899 20C59.9433 21.0133 59.1366 21.7667 58.0699 22.26C57.0033 22.7533 55.6833 23 54.1099 23H48.1499ZM52.5699 19.7H54.0299C54.5099 19.7 54.9233 19.6333 55.2699 19.5C55.6299 19.3667 55.9233 19.1733 56.1499 18.92C56.3766 18.6667 56.5433 18.3533 56.6499 17.98C56.7566 17.6067 56.8099 17.1867 56.8099 16.72V15.52C56.8099 15.0533 56.7566 14.6333 56.6499 14.26C56.5433 13.8867 56.3766 13.5733 56.1499 13.32C55.9233 13.0667 55.6299 12.8733 55.2699 12.74C54.9233 12.6067 54.5099 12.54 54.0299 12.54H52.5699V19.7ZM69.8963 23.24C68.9497 23.24 68.063 23.1667 67.2363 23.02C66.423 22.8867 65.703 22.6533 65.0763 22.32C64.463 21.9733 63.9763 21.5 63.6163 20.9C63.2697 20.2867 63.0963 19.52 63.0963 18.6C63.0963 18.5733 63.0963 18.54 63.0963 18.5C63.0963 18.4467 63.103 18.3933 63.1163 18.34H67.2963C67.283 18.3933 67.2763 18.4467 67.2763 18.5C67.2763 18.54 67.2763 18.58 67.2763 18.62C67.2763 19.02 67.3697 19.3267 67.5563 19.54C67.743 19.7533 68.003 19.9 68.3363 19.98C68.683 20.0467 69.0697 20.08 69.4963 20.08C69.6563 20.08 69.823 20.08 69.9963 20.08C70.183 20.0667 70.3563 20.0467 70.5163 20.02C70.6897 19.98 70.843 19.9267 70.9763 19.86C71.123 19.7933 71.2363 19.7067 71.3163 19.6C71.3963 19.48 71.4363 19.3333 71.4363 19.16C71.4363 18.9067 71.323 18.7067 71.0963 18.56C70.8697 18.4133 70.563 18.2867 70.1763 18.18C69.7897 18.0733 69.3563 17.9733 68.8763 17.88C68.3963 17.7867 67.8963 17.68 67.3763 17.56C66.8563 17.4267 66.3563 17.26 65.8763 17.06C65.3963 16.86 64.963 16.6067 64.5763 16.3C64.1897 15.98 63.883 15.5867 63.6563 15.12C63.4297 14.64 63.3163 14.0667 63.3163 13.4C63.3163 12.6 63.483 11.92 63.8163 11.36C64.1497 10.8 64.603 10.3467 65.1763 10C65.763 9.65333 66.423 9.4 67.1563 9.24C67.903 9.08 68.683 9 69.4963 9C70.323 9 71.0963 9.08667 71.8163 9.26C72.5497 9.42 73.1963 9.67333 73.7563 10.02C74.3163 10.3667 74.7563 10.8067 75.0763 11.34C75.3963 11.8733 75.563 12.5067 75.5763 13.24V13.48H71.4363V13.4C71.4363 13.16 71.3763 12.9333 71.2563 12.72C71.1363 12.5067 70.943 12.3333 70.6763 12.2C70.423 12.0667 70.083 12 69.6563 12C69.2563 12 68.9163 12.04 68.6363 12.12C68.3697 12.2 68.1697 12.3133 68.0363 12.46C67.903 12.5933 67.8363 12.74 67.8363 12.9C67.8363 13.1533 67.9497 13.36 68.1763 13.52C68.403 13.68 68.7097 13.8133 69.0963 13.92C69.483 14.0267 69.9163 14.1267 70.3963 14.22C70.8763 14.3133 71.3763 14.42 71.8963 14.54C72.4163 14.6467 72.9163 14.7933 73.3963 14.98C73.8763 15.1667 74.3097 15.4133 74.6963 15.72C75.083 16.0133 75.3897 16.38 75.6163 16.82C75.843 17.26 75.9563 17.8 75.9563 18.44C75.9563 19.5733 75.6897 20.4933 75.1563 21.2C74.6363 21.9067 73.9163 22.4267 72.9963 22.76C72.0897 23.08 71.0563 23.24 69.8963 23.24Z" fill="white"/>
<path d="M27.8281 11.4422L26.3172 9.93281C26.1999 9.81554 26.0409 9.74965 25.875 9.74965C25.7091 9.74965 25.5501 9.81554 25.4328 9.93281C25.3155 10.0501 25.2497 10.2091 25.2497 10.375C25.2497 10.5409 25.3155 10.6999 25.4328 10.8172L26.9422 12.3281C27.0588 12.4449 27.1245 12.603 27.125 12.768V19.125C27.125 19.2908 27.0592 19.4497 26.9419 19.5669C26.8247 19.6842 26.6658 19.75 26.5 19.75C26.3342 19.75 26.1753 19.6842 26.0581 19.5669C25.9408 19.4497 25.875 19.2908 25.875 19.125V16C25.875 15.5027 25.6775 15.0258 25.3258 14.6742C24.9742 14.3225 24.4973 14.125 24 14.125H22.75V10.375C22.75 9.87772 22.5525 9.40081 22.2008 9.04917C21.8492 8.69754 21.3723 8.5 20.875 8.5H14.625C14.1277 8.5 13.6508 8.69754 13.2992 9.04917C12.9475 9.40081 12.75 9.87772 12.75 10.375V22.25H11.5C11.3342 22.25 11.1753 22.3158 11.0581 22.4331C10.9408 22.5503 10.875 22.7092 10.875 22.875C10.875 23.0408 10.9408 23.1997 11.0581 23.3169C11.1753 23.4342 11.3342 23.5 11.5 23.5H24C24.1658 23.5 24.3247 23.4342 24.4419 23.3169C24.5592 23.1997 24.625 23.0408 24.625 22.875C24.625 22.7092 24.5592 22.5503 24.4419 22.4331C24.3247 22.3158 24.1658 22.25 24 22.25H22.75V15.375H24C24.1658 15.375 24.3247 15.4408 24.4419 15.5581C24.5592 15.6753 24.625 15.8342 24.625 16V19.125C24.625 19.6223 24.8225 20.0992 25.1742 20.4508C25.5258 20.8025 26.0027 21 26.5 21C26.9973 21 27.4742 20.8025 27.8258 20.4508C28.1775 20.0992 28.375 19.6223 28.375 19.125V12.768C28.3759 12.5218 28.3281 12.2779 28.2342 12.0504C28.1404 11.8228 28.0023 11.6161 27.8281 11.4422ZM20.25 15.375H15.25C15.0842 15.375 14.9253 15.3092 14.8081 15.1919C14.6908 15.0747 14.625 14.9158 14.625 14.75C14.625 14.5842 14.6908 14.4253 14.8081 14.3081C14.9253 14.1908 15.0842 14.125 15.25 14.125H20.25C20.4158 14.125 20.5747 14.1908 20.6919 14.3081C20.8092 14.4253 20.875 14.5842 20.875 14.75C20.875 14.9158 20.8092 15.0747 20.6919 15.1919C20.5747 15.3092 20.4158 15.375 20.25 15.375Z" fill="white"/>
</svg>
