<svg width="23" height="20" viewBox="0 0 23 20" fill="none" xmlns="http://www.w3.org/2000/svg">
<path d="M20 3.125C20.3438 3.125 20.625 3.40625 20.625 3.75V16.25C20.625 16.5938 20.3438 16.875 20 16.875H2.5C2.15625 16.875 1.875 16.5938 1.875 16.25V3.75C1.875 3.40625 2.15625 3.125 2.5 3.125H20ZM2.5 1.25C1.12109 1.25 0 2.37109 0 3.75V16.25C0 17.6289 1.12109 18.75 2.5 18.75H20C21.3789 18.75 22.5 17.6289 22.5 16.25V3.75C22.5 2.37109 21.3789 1.25 20 1.25H2.5ZM8.125 10C8.78804 10 9.42393 9.73661 9.89277 9.26777C10.3616 8.79893 10.625 8.16304 10.625 7.5C10.625 6.83696 10.3616 6.20107 9.89277 5.73223C9.42393 5.26339 8.78804 5 8.125 5C7.46196 5 6.82607 5.26339 6.35723 5.73223C5.88839 6.20107 5.625 6.83696 5.625 7.5C5.625 8.16304 5.88839 8.79893 6.35723 9.26777C6.82607 9.73661 7.46196 10 8.125 10ZM6.875 11.25C5.14844 11.25 3.75 12.6484 3.75 14.375C3.75 14.7188 4.03125 15 4.375 15H11.875C12.2188 15 12.5 14.7188 12.5 14.375C12.5 12.6484 11.1016 11.25 9.375 11.25H6.875ZM14.6875 5.625C14.168 5.625 13.75 6.04297 13.75 6.5625C13.75 7.08203 14.168 7.5 14.6875 7.5H17.8125C18.332 7.5 18.75 7.08203 18.75 6.5625C18.75 6.04297 18.332 5.625 17.8125 5.625H14.6875ZM14.6875 9.375C14.168 9.375 13.75 9.79297 13.75 10.3125C13.75 10.832 14.168 11.25 14.6875 11.25H17.8125C18.332 11.25 18.75 10.832 18.75 10.3125C18.75 9.79297 18.332 9.375 17.8125 9.375H14.6875Z" fill="#2665D2"/>
</svg>
