<svg width="11" height="17" viewBox="0 0 11 17" fill="none" xmlns="http://www.w3.org/2000/svg">
<path d="M10.1168 7.64973L3.32008 0.974662C3.18299 0.840024 3.02024 0.733223 2.84112 0.660357C2.662 0.587491 2.47003 0.549988 2.27615 0.549988C2.08227 0.549988 1.8903 0.587491 1.71118 0.660357C1.53206 0.733223 1.36931 0.840024 1.23222 0.974662C1.09512 1.1093 0.986378 1.26914 0.912184 1.44505C0.837991 1.62097 0.799803 1.80951 0.799803 1.99992C0.799803 2.19033 0.837991 2.37887 0.912184 2.55478C0.986378 2.7307 1.09512 2.89054 1.23222 3.02517L6.97756 8.68226L1.23222 14.3248C1.09512 14.4594 0.986378 14.6193 0.912184 14.7952C0.837991 14.9711 0.799803 15.1597 0.799803 15.3501C0.799803 15.5405 0.837991 15.729 0.912184 15.9049C0.986378 16.0808 1.09512 16.2407 1.23222 16.3753C1.36931 16.51 1.53206 16.6168 1.71118 16.6896C1.8903 16.7625 2.08227 16.8 2.27615 16.8C2.47003 16.8 2.662 16.7625 2.84112 16.6896C3.02024 16.6168 3.18299 16.51 3.32008 16.3753L10.1168 9.70025C10.254 9.56571 10.3629 9.4059 10.4372 9.22997C10.5116 9.05404 10.5498 8.86545 10.5498 8.67499C10.5498 8.48453 10.5116 8.29593 10.4372 8.12001C10.3629 7.94408 10.254 7.78427 10.1168 7.64973Z" fill="black"/>
</svg>
