<svg width="17" height="11" viewBox="0 0 17 11" fill="none" xmlns="http://www.w3.org/2000/svg">
<path d="M9.35045 10.117L16.0255 3.32028C16.1602 3.18319 16.267 3.02044 16.3398 2.84132C16.4127 2.6622 16.4502 2.47022 16.4502 2.27635C16.4502 2.08247 16.4127 1.89049 16.3398 1.71137C16.267 1.53226 16.1602 1.36951 16.0255 1.23241C15.8909 1.09532 15.731 0.986576 15.5551 0.912383C15.3792 0.838189 15.1907 0.800001 15.0003 0.800001C14.8099 0.800001 14.6213 0.838189 14.4454 0.912383C14.2695 0.986576 14.1096 1.09532 13.975 1.23241L8.31792 6.97776L2.67538 1.23241C2.54074 1.09532 2.3809 0.986576 2.20499 0.912383C2.02907 0.838189 1.84053 0.800001 1.65012 0.800001C1.45972 0.800001 1.27117 0.838189 1.09526 0.912383C0.919345 0.986576 0.759504 1.09532 0.624865 1.23241C0.490227 1.36951 0.383428 1.53226 0.310562 1.71137C0.237696 1.89049 0.200193 2.08247 0.200193 2.27635C0.200193 2.47022 0.237696 2.6622 0.310562 2.84132C0.383428 3.02044 0.490227 3.18319 0.624865 3.32028L7.29994 10.117C7.43448 10.2542 7.59428 10.3631 7.77021 10.4374C7.94614 10.5118 8.13473 10.55 8.32519 10.55C8.51566 10.55 8.70425 10.5118 8.88018 10.4374C9.0561 10.3631 9.21591 10.2542 9.35045 10.117Z" fill="black"/>
</svg>
