<svg width="300" height="100" viewBox="0 0 300 100" fill="none" xmlns="http://www.w3.org/2000/svg">
<rect width="300" height="100" rx="40" fill="#E32727"/>
<path d="M134.678 71V26.968H170.262V37.528H148.822V45.08H167.254V55.192H148.822V71H134.678ZM177.365 71V26.968H196.437C201.472 26.968 205.696 27.7573 209.109 29.336C212.523 30.9147 215.104 33.3253 216.853 36.568C218.645 39.8107 219.541 43.9493 219.541 48.984C219.541 53.976 218.645 58.1147 216.853 61.4C215.104 64.6427 212.523 67.0533 209.109 68.632C205.696 70.2107 201.472 71 196.437 71H177.365ZM191.509 60.44H196.181C197.717 60.44 199.04 60.2267 200.149 59.8C201.301 59.3733 202.24 58.7547 202.965 57.944C203.691 57.1333 204.224 56.1307 204.565 54.936C204.907 53.7413 205.077 52.3973 205.077 50.904V47.064C205.077 45.5707 204.907 44.2267 204.565 43.032C204.224 41.8373 203.691 40.8347 202.965 40.024C202.24 39.2133 201.301 38.5947 200.149 38.168C199.04 37.7413 197.717 37.528 196.181 37.528H191.509V60.44ZM246.954 71.768C243.925 71.768 241.087 71.5333 238.442 71.064C235.839 70.6373 233.535 69.8907 231.53 68.824C229.567 67.7147 228.01 66.2 226.858 64.28C225.749 62.3173 225.194 59.864 225.194 56.92C225.194 56.8347 225.194 56.728 225.194 56.6C225.194 56.4293 225.215 56.2587 225.258 56.088H238.634C238.591 56.2587 238.57 56.4293 238.57 56.6C238.57 56.728 238.57 56.856 238.57 56.984C238.57 58.264 238.869 59.2453 239.466 59.928C240.063 60.6107 240.895 61.08 241.962 61.336C243.071 61.5493 244.309 61.656 245.674 61.656C246.186 61.656 246.719 61.656 247.274 61.656C247.871 61.6133 248.426 61.5493 248.938 61.464C249.493 61.336 249.983 61.1653 250.41 60.952C250.879 60.7387 251.242 60.4613 251.498 60.12C251.754 59.736 251.882 59.2667 251.882 58.712C251.882 57.9013 251.519 57.2613 250.794 56.792C250.069 56.3227 249.087 55.9173 247.85 55.576C246.613 55.2347 245.226 54.9147 243.69 54.616C242.154 54.3173 240.554 53.976 238.89 53.592C237.226 53.1653 235.626 52.632 234.09 51.992C232.554 51.352 231.167 50.5413 229.93 49.56C228.693 48.536 227.711 47.2773 226.986 45.784C226.261 44.248 225.898 42.4133 225.898 40.28C225.898 37.72 226.431 35.544 227.498 33.752C228.565 31.96 230.015 30.5093 231.85 29.4C233.727 28.2907 235.839 27.48 238.186 26.968C240.575 26.456 243.071 26.2 245.674 26.2C248.319 26.2 250.794 26.4773 253.098 27.032C255.445 27.544 257.514 28.3547 259.306 29.464C261.098 30.5733 262.506 31.9813 263.53 33.688C264.554 35.3947 265.087 37.4213 265.13 39.768V40.536H251.882V40.28C251.882 39.512 251.69 38.7867 251.306 38.104C250.922 37.4213 250.303 36.8667 249.45 36.44C248.639 36.0133 247.551 35.8 246.186 35.8C244.906 35.8 243.818 35.928 242.922 36.184C242.069 36.44 241.429 36.8027 241.002 37.272C240.575 37.6987 240.362 38.168 240.362 38.68C240.362 39.4907 240.725 40.152 241.45 40.664C242.175 41.176 243.157 41.6027 244.394 41.944C245.631 42.2853 247.018 42.6053 248.554 42.904C250.09 43.2027 251.69 43.544 253.354 43.928C255.018 44.2693 256.618 44.7387 258.154 45.336C259.69 45.9333 261.077 46.7227 262.314 47.704C263.551 48.6427 264.533 49.816 265.258 51.224C265.983 52.632 266.346 54.36 266.346 56.408C266.346 60.0347 265.493 62.9787 263.786 65.24C262.122 67.5013 259.818 69.1653 256.874 70.232C253.973 71.256 250.666 71.768 246.954 71.768Z" fill="white"/>
<path d="M94.3025 33.1558L88.7984 27.5776C88.3711 27.1442 87.7917 26.9008 87.1875 26.9008C86.5834 26.9008 86.0039 27.1442 85.5767 27.5776C85.1495 28.0111 84.9095 28.5989 84.9095 29.2118C84.9095 29.8248 85.1495 30.4126 85.5767 30.846L91.0751 36.4299C91.4999 36.8613 91.7393 37.4456 91.7411 38.0554V61.5488C91.7411 62.1614 91.5012 62.7489 91.0743 63.182C90.6473 63.6152 90.0682 63.8586 89.4643 63.8586C88.8605 63.8586 88.2814 63.6152 87.8544 63.182C87.4274 62.7489 87.1875 62.1614 87.1875 61.5488V49.9999C87.1875 48.1621 86.4679 46.3996 85.187 45.1001C83.906 43.8006 82.1687 43.0705 80.3572 43.0705H75.8036V29.2118C75.8036 27.374 75.084 25.6115 73.803 24.312C72.5221 23.0125 70.7848 22.2825 68.9733 22.2825H46.2054C44.3939 22.2825 42.6565 23.0125 41.3756 24.312C40.0947 25.6115 39.375 27.374 39.375 29.2118V73.0977H34.8215C34.2176 73.0977 33.6385 73.341 33.2115 73.7742C32.7846 74.2074 32.5447 74.7949 32.5447 75.4075C32.5447 76.0201 32.7846 76.6076 33.2115 77.0407C33.6385 77.4739 34.2176 77.7173 34.8215 77.7173H80.3572C80.961 77.7173 81.5401 77.4739 81.9671 77.0407C82.3941 76.6076 82.634 76.0201 82.634 75.4075C82.634 74.7949 82.3941 74.2074 81.9671 73.7742C81.5401 73.341 80.961 73.0977 80.3572 73.0977H75.8036V47.6901H80.3572C80.961 47.6901 81.5401 47.9334 81.9671 48.3666C82.3941 48.7998 82.634 49.3873 82.634 49.9999V61.5488C82.634 63.3866 83.3536 65.1491 84.6345 66.4486C85.9155 67.7481 87.6528 68.4781 89.4643 68.4781C91.2758 68.4781 93.0132 67.7481 94.2941 66.4486C95.5751 65.1491 96.2947 63.3866 96.2947 61.5488V38.0554C96.2981 37.1457 96.1238 36.2443 95.7819 35.4033C95.4399 34.5624 94.9371 33.7985 94.3025 33.1558ZM66.6965 47.6901H48.4822C47.8783 47.6901 47.2992 47.4467 46.8722 47.0136C46.4453 46.5804 46.2054 45.9929 46.2054 45.3803C46.2054 44.7677 46.4453 44.1802 46.8722 43.747C47.2992 43.3139 47.8783 43.0705 48.4822 43.0705H66.6965C67.3003 43.0705 67.8794 43.3139 68.3064 43.747C68.7334 44.1802 68.9733 44.7677 68.9733 45.3803C68.9733 45.9929 68.7334 46.5804 68.3064 47.0136C67.8794 47.4467 67.3003 47.6901 66.6965 47.6901Z" fill="white"/>
</svg>
